<svg width="20" height="20" viewBox="0 0 20 20" fill="none" xmlns="http://www.w3.org/2000/svg">
<path d="M15.1286 6.31705C15.1286 11.0284 9.74399 15.1339 9.74399 15.1339C9.74399 15.1339 4.35938 11.0284 4.35938 6.31705C4.35938 3.35565 6.78245 1 9.74399 1C12.7055 1 15.1286 3.35565 15.1286 6.31705Z" stroke="#8F8F8F" stroke-width="2" stroke-miterlimit="10" stroke-linecap="round" stroke-linejoin="round"/>
<path d="M9.7524 7.73124C10.4959 7.73124 11.0986 7.12857 11.0986 6.38515C11.0986 5.64173 10.4959 5.03906 9.7524 5.03906C9.00894 5.03906 8.40625 5.64173 8.40625 6.38515C8.40625 7.12857 9.00894 7.73124 9.7524 7.73124Z" stroke="#8F8F8F" stroke-width="2" stroke-miterlimit="10" stroke-linecap="round" stroke-linejoin="round"/>
<path d="M11.9038 13.1172H15.8077L18.5 18.5015H1L3.69231 13.1172H7.59615" stroke="#8F8F8F" stroke-width="2" stroke-miterlimit="10" stroke-linecap="round" stroke-linejoin="round"/>
</svg>
