<svg width="15" height="15" viewBox="0 0 15 15" fill="none" xmlns="http://www.w3.org/2000/svg">
<path d="M13.4969 6.14827C13.3916 5.98274 13.3036 5.80682 13.2344 5.62327C13.174 5.43466 13.1362 5.23954 13.1219 5.04202C13.1137 4.56403 12.9754 4.09732 12.7219 3.69202C12.4119 3.32449 12.0079 3.04799 11.5531 2.89202C11.3675 2.82038 11.1895 2.73035 11.0219 2.62327C10.8764 2.49806 10.7425 2.36 10.6219 2.21077C10.3347 1.82093 9.94539 1.5181 9.49687 1.33577C9.04274 1.22846 8.56827 1.24355 8.12187 1.37952C7.72314 1.47322 7.30811 1.47322 6.90938 1.37952C6.45518 1.23902 5.97146 1.2239 5.50937 1.33577C5.05629 1.51611 4.66241 1.8191 4.37187 2.21077C4.24725 2.36056 4.10917 2.49864 3.95937 2.62327C3.7917 2.73035 3.61373 2.82038 3.42812 2.89202C2.97105 3.04698 2.56484 3.32355 2.25312 3.69202C2.00622 4.09922 1.87445 4.56581 1.87187 5.04202C1.85753 5.23954 1.81977 5.43466 1.75937 5.62327C1.68936 5.80251 1.60142 5.97421 1.49688 6.13577C1.21508 6.53748 1.04865 7.00868 1.01562 7.49827C1.05088 7.98353 1.21721 8.45012 1.49688 8.84827C1.60382 9.00842 1.69191 9.18039 1.75937 9.36077C1.81375 9.55433 1.84522 9.75361 1.85313 9.95452C1.86071 10.4326 1.99905 10.8995 2.25312 11.3045C2.56312 11.672 2.96707 11.9485 3.42188 12.1045C3.60748 12.1761 3.78545 12.2662 3.95312 12.3733C4.10292 12.4979 4.241 12.636 4.36562 12.7858C4.65083 13.1775 5.04077 13.4808 5.49062 13.6608C5.6669 13.7144 5.85012 13.7418 6.03437 13.742C6.31664 13.733 6.59725 13.6953 6.87187 13.6295C7.26992 13.53 7.68633 13.53 8.08437 13.6295C8.53967 13.7646 9.0225 13.7776 9.48438 13.667C9.93423 13.487 10.3242 13.1837 10.6094 12.792C10.734 12.6422 10.8721 12.5041 11.0219 12.3795C11.1895 12.2724 11.3675 12.1824 11.5531 12.1108C12.0079 11.9548 12.4119 11.6783 12.7219 11.3108C12.976 10.9057 13.1143 10.4388 13.1219 9.96076C13.1298 9.75986 13.1612 9.56058 13.2156 9.36701C13.2856 9.18778 13.3736 9.01607 13.4781 8.85452C13.7655 8.45658 13.9384 7.98753 13.9781 7.49827C13.9429 7.013 13.7765 6.54641 13.4969 6.14827ZM10.4406 6.69202L7.31563 9.81702C7.25752 9.8756 7.1884 9.92209 7.11224 9.95382C7.03607 9.98555 6.95438 10.0019 6.87187 10.0019C6.78937 10.0019 6.70768 9.98555 6.63151 9.95382C6.55535 9.92209 6.48623 9.8756 6.42812 9.81702L4.55312 7.94202C4.49485 7.88374 4.44863 7.81456 4.41709 7.73842C4.38555 7.66228 4.36932 7.58068 4.36932 7.49827C4.36932 7.33183 4.43544 7.1722 4.55312 7.05452C4.67081 6.93683 4.83044 6.87071 4.99687 6.87071C5.16331 6.87071 5.32294 6.93683 5.44063 7.05452L6.87187 8.49202L9.55313 5.80452C9.67081 5.68683 9.83044 5.62071 9.99687 5.62071C10.1633 5.62071 10.3229 5.68683 10.4406 5.80452C10.5583 5.92221 10.6244 6.08183 10.6244 6.24827C10.6244 6.4147 10.5583 6.57433 10.4406 6.69202Z" fill="#00FF0B"/>
</svg>
